<svg id="Capa_1" data-name="Capa 1" xmlns="http://www.w3.org/2000/svg" viewBox="0 0 256 256"><title>Mesa de trabajo 1</title><path d="M79.22,152.2c6.87,1.44,10.78-3,15.63-6.74-.93,3.54-2,6.51-2.37,9.57-.18,1.44,1,3,1.51,4.57,1.2-1,3.1-1.74,3.51-3,3.21-9.8,6.16-19.69,9.13-29.56.59-2,.49-4.33-1.89-4.49-1.28-.09-3.54,1.72-3.91,3.07A31.51,31.51,0,0,1,90.66,142a23.69,23.69,0,0,1-3.13,2.35c-3.36,2-5.42,1-5.29-2.88.4-12.41,5.69-22.68,14.61-31,3.54-3.32,6-2.62,8.69,1.44,1.06,1.58,2,4.25,4.5,2.73s2-4.07.76-6.31c-3.46-6.12-10.06-7.79-16.23-4C87.07,109,82.68,116.14,79,123.87a11,11,0,0,1-2.22,3.51l-6.2-57.23a306.63,306.63,0,0,0,112.84.1c-.32,3.82-.59,7.92-1,12q-2.76,26-5.6,52.09c-.09.82-.07,1.92-.57,2.38-3.6,3.31-7.31,6.48-11,9.7l-1-1c1.6-1.93,3.29-3.8,4.76-5.82s3-3.86,3.66-6.05c.52-1.66.46-4.37-.57-5.43a6.87,6.87,0,0,0-5.67-1.65c-2.63.68-4.95,2.59-7.13,3.82l-2.48-2.92c-1.18,1-3.07,1.83-3.41,3.07-1.61,5.91-5.51,9.83-10.32,13.1-1,.7-2.21,1.21-4.37,2.37.82-2.71,1.18-4.39,1.82-6,3.74-9.25,7.55-18.47,11.34-27.7.81-2,2.11-4.28-.71-5.51s-4.11.93-5,3.17C142.12,120.21,138,130.58,134,141c-1.12,3-3.11,4.2-7,4.72,1.1-3.52,2-6.49,3-9.43.73-2.13,1.92-4.15,2.33-6.33.21-1.08-.86-2.41-1.35-3.63-1.17.51-2.9.7-3.4,1.59-1.78,3.2-2.88,6.79-4.76,9.93a32.54,32.54,0,0,1-5.57,6.35c-.59.57-1.93.36-2.92.51a7.11,7.11,0,0,1-.08-2.62c1.34-3.54,2.84-7,4.3-10.51.78-1.85,2.13-3.88-.59-5.17-2.49-1.19-3.86.59-4.65,2.54-2.06,5-4.22,10.08-5.81,15.28-1.74,5.69,2,9.27,7.67,7.31,2.58-.9,4.81-2.82,7.1-4.22,1.12,5.6,3,6,10.63,2,3.5,4,6.51,3.66,13.87-1.88-1.92,4.18-3.69,7.89-5.33,11.66a20.29,20.29,0,0,0-1.77,5.37,3.73,3.73,0,0,0,1.4,3.14,3.68,3.68,0,0,0,3.41-.63,14.45,14.45,0,0,0,2.66-4.53c2.45-5.8,4.49-11.78,7.26-17.42a49.81,49.81,0,0,1,6.9-9.85c1.16-1.37,3.25-2,4.92-2.9l.78.91c-.94,1.39-1.84,2.82-2.84,4.17-1.85,2.48-4,4.75-5.55,7.41-.82,1.44-1.26,4-.52,5.17a5.81,5.81,0,0,0,4.82,1.89,28.23,28.23,0,0,0,7.75-3.15,37.36,37.36,0,0,0,4.88-3.75c-.81,7.52-1.52,14.45-2.31,21.37-.83,7.2-2,14.37-2.53,21.59-.23,3-1.59,4.43-4.08,5-9.51,2-19,4.61-28.59,5.53a126.49,126.49,0,0,1-46.67-3.94c-.34-.1-.69-.17-1-.28-7.51-2.32-7.56-2.64-8.11-10.61-.63-9-1.65-18-2.5-27C79.53,155.25,79.39,154,79.22,152.2Z" style="fill:#fff"/><path d="M86.45,196.93a143.24,143.24,0,0,0,80.14,0,14.47,14.47,0,0,1-1.18,2.42c-4.36,5.63-5.4,12.17-5.63,19.06-.31,9.27-1.1,18.52-1.4,27.78-.1,3-1.3,4.91-4,5.53-6.34,1.47-12.69,3.21-19.13,3.79A87.9,87.9,0,0,1,103.1,253c-6.53-1.86-6.94-2.54-7.39-9.29-.71-10.68-1.43-21.35-2.36-32a18.85,18.85,0,0,0-2.09-6.31C89.94,202.63,88.26,200.05,86.45,196.93Z" style="fill:#fff"/><path d="M68.78,64.3c5.24-4,10.27-4.49,15.13-5.17a289.26,289.26,0,0,1,53.35-2.55c2.44.11,3.67-.57,4.25-3.06,1.49-6.35,3.14-12.67,4.9-18.94A11.44,11.44,0,0,1,148.86,30q13.38-14.36,27-28.47c.89-.92,3.06-1.85,3.79-1.41a16.63,16.63,0,0,1,4.57,4.69c.25.35-.95,2-1.71,2.78-8.13,8.68-16.38,17.25-24.43,26a15.63,15.63,0,0,0-3.3,6.07c-1.58,5.46-2.75,11-4.24,17.19,4.78.49,9.35.74,13.84,1.47,5.72.93,11.4,2.18,17.05,3.48,1,.22,1.73,1.36,2.59,2.08-.83.73-1.57,1.92-2.51,2.11-7.31,1.48-14.61,3.26-22,4a320.2,320.2,0,0,1-57,.65c-8.85-.67-17.65-2.18-26.44-3.56C73.87,66.78,71.81,65.51,68.78,64.3Zm74.55,4.76c1.93-.44,4-.83,6-1.44.47-.14.72-1,1.07-1.56a8,8,0,0,0-2-.59c-3.34-.05-6.68,0-10,0a10.07,10.07,0,0,0-2.07.47c.41.62.71,1.61,1.26,1.79a51.17,51.17,0,0,0,5.74,1.34Z" style="fill:#fff"/><path d="M143.33,69.07a57.91,57.91,0,0,1-5.75-1.31c-.56-.18-.85-1.17-1.26-1.79a10.07,10.07,0,0,1,2.07-.47c3.34-.06,6.68-.07,10,0a8,8,0,0,1,2,.59c-.35.54-.6,1.42-1.07,1.56C147.34,68.23,145.25,68.63,143.33,69.07Z" style="fill:#fff"/></svg>